<svg xmlns="http://www.w3.org/2000/svg" viewBox="0 0 24 24" fill="#E1306C" aria-hidden="true"><path d="M12 7.2A4.8 4.8 0 1 0 12 16.8 4.8 4.8 0 1 0 12 7.2zm0 7.9a3.1 3.1 0 1 1 0-6.2 3.1 3.1 0 0 1 0 6.2zM17.9 7.1a1.12 1.12 0 1 1 0-2.24 1.12 1.12 0 0 1 0 2.24zM21 8.1c-.05-1.12-.27-1.88-.57-2.54-.31-.69-.73-1.22-1.34-1.84C17.92 2.2 16.33 2 12 2s-5.92.2-6.99.72c-.61.62-1.03 1.15-1.34 1.84-.3.66-.52 1.42-.57 2.54C1.3 9.2 1 12 1 12s.3 2.8.1 3.9c.05 1.12.27 1.88.57 2.54.31.69.73 1.22 1.34 1.84C6.08 21.8 7.67 22 12 22s5.92-.2 6.99-.72c.61-.62 1.03-1.15 1.34-1.84.3-.66.52-1.42.57-2.54.2-1.1.3-3.9.3-3.9s-.1-2.8-.3-3.9zM12 19.2c-4.11 0-4.6-.01-6.21-.06-1.14-.03-1.76-.17-2.17-.28-.53-.15-.9-.33-1.3-.74-.41-.41-.59-.77-.74-1.3-.11-.41-.25-1.03-.28-2.17C1.01 13.6 1 13.11 1 9c0-4.11.01-4.6.06-6.21.03-1.14.17-1.76.28-2.17.15-.53.33-.9.74-1.3.41-.41.77-.59 1.3-.74.41-.11 1.03-.25 2.17-.28C7.4 1.01 7.89 1 12 1s4.6.01 6.21.06c1.14.03 1.76.17 2.17.28.53.15.9.33 1.3.74.41.41.59.77.74 1.3.11.41.25 1.03.28 2.17.05 1.61.06 2.1.06 6.21s-.01 4.6-.06 6.21c-.03 1.14-.17 1.76-.28 2.17-.15.53-.33.9-.74 1.3-.41.41-.77.59-1.3.74-.41.11-1.03.25-2.17.28-1.61.05-2.1.06-6.21.06z"/></svg>