<svg xmlns="http://www.w3.org/2000/svg" viewBox="0 0 24 24" fill="#1DA1F2" aria-hidden="true"><path d="M22 5.92c-.66.29-1.37.48-2.12.57.76-.46 1.34-1.17 1.61-2.03-.71.42-1.5.73-2.34.9C18.15 4.2 17.12 4 16 4c-2.02 0-3.66 1.64-3.66 3.66 0 .29.03.57.09.84C9.69 8.32 6.69 6.71 4.6 4.01c-.32.55-.5 1.18-.5 1.86 0 1.28.65 2.41 1.64 3.07-.6-.02-1.17-.18-1.67-.46v.05c0 1.78 1.26 3.26 2.94 3.59-.31.08-.64.12-.98.12-.24 0-.47-.02-.69-.07.47 1.48 1.83 2.56 3.44 2.59-1.26.99-2.85 1.58-4.58 1.58-.3 0-.59-.02-.88-.05C6.85 20.29 8.98 21 11.32 21c6.41 0 9.92-5.31 9.92-9.92 0-.15 0-.29-.01-.44.68-.49 1.27-1.11 1.74-1.82-.62.28-1.28.47-1.96.56z"/></svg>